<svg width="600" height="600" viewBox="0 0 600 600" fill="none" xmlns="http://www.w3.org/2000/svg">
<g clip-path="url(#clip0_266_510)">
<circle cx="300" cy="300" r="300" fill="#B5138D"/>
<path d="M510.417 142.536C512.227 140.725 514.308 139.006 516.39 137.648C518.291 136.29 520.101 135.204 520.735 134.571C521.64 133.666 522.092 132.67 522.545 131.493C523.088 130.407 523.631 129.321 524.445 128.507C528.609 124.343 541.099 128.507 544.81 132.217C547.254 134.661 546.982 138.553 544.629 140.906C539.47 146.065 529.424 141.811 525.441 145.794C523.812 147.423 523.54 150.41 525.26 152.13C531.053 157.922 552.051 139.096 566.08 153.125C574.588 161.633 572.235 175.753 562.822 185.166C561.011 186.976 558.115 189.329 555.49 191.23C552.956 193.221 550.693 194.941 550.15 195.484C549.517 196.117 549.064 196.751 548.521 197.475C548.069 198.108 547.616 198.742 546.982 199.376C545.172 201.186 543.996 201.819 541.28 201.638C536.483 201.367 529.061 198.471 525.622 195.031C523.269 192.678 522.183 189.963 524.808 187.338C528.79 183.355 541.371 188.695 546.439 183.627C548.25 181.817 549.064 179.192 547.073 177.201C541.733 171.861 523.359 188.967 508.425 174.033C499.374 164.982 501.094 151.858 510.417 142.536Z" fill="white"/>
<path d="M488.124 191.257L501.609 204.743C507.674 210.807 511.656 209.721 514.1 207.278C516.906 204.472 516.453 200.761 518.082 199.132C519.892 197.321 523.694 198.589 525.323 200.218C531.297 206.191 526.228 221.759 517.087 230.901C512.471 235.517 498.894 245.111 484.503 230.72L465.858 212.075C464.229 210.445 463.595 209.812 462.871 209.993C462.147 210.174 461.333 211.351 459.251 213.432C456.898 215.785 455.812 217.053 454.906 217.053C453.639 217.053 452.915 215.967 450.834 213.885C449.566 212.618 448.299 211.894 448.661 210.083L456.174 176.323C456.988 172.974 457.169 173.336 459.885 170.621C463.505 167.001 463.324 166.458 467.487 170.621C470.293 173.427 472.918 176.414 474.457 177.047C475.452 177.5 476.086 176.866 478.439 174.513L484.775 168.177C488.667 164.285 488.938 164.557 493.011 168.63C498.17 173.789 497.899 174.785 494.369 178.315L488.124 184.56C484.956 187.727 484.865 187.999 488.124 191.257Z" fill="white"/>
<path d="M458.084 231.253L473.018 245.463C480.712 253.156 483.246 246.82 486.776 250.35C492.025 255.6 480.35 267.094 477.001 270.443C474.195 273.249 463.243 284.201 458.627 279.585C456.003 276.96 458.627 274.516 454.735 269.176C452.382 265.737 449.305 262.478 446.318 259.492C441.793 254.966 433.194 246.549 426.768 252.975C421.247 258.496 426.134 263.022 430.207 267.094L440.706 277.594C448.219 285.106 450.3 279.947 453.559 283.205C458.808 288.455 448.581 298.863 445.141 302.303C432.199 315.246 426.496 315.517 423.691 312.711C420.07 309.091 425.229 307.19 420.885 299.768C417.717 294.428 405.77 282.481 400.792 277.503C396.719 273.43 392.284 269.538 388.12 265.556C381.513 259.311 378.345 267.004 374.091 262.75C366.851 255.509 388.482 230.076 388.573 229.986C391.288 227.27 392.284 227.904 394.909 230.529L411.562 248.268C413.191 250.079 415.997 253.065 418.351 250.712C421.066 247.997 414.187 238.765 424.324 228.628C440.978 211.974 455.459 228.809 458.084 231.253Z" fill="white"/>
<path d="M375.32 312.75C371.609 309.039 364.097 303.155 359.028 308.224C355.499 311.754 357.309 316.641 360.477 319.809C363.916 323.249 372.333 329.856 376.949 325.24C381.022 321.167 378.85 316.279 375.32 312.75ZM391.521 362.982C396.318 367.779 404.645 361.987 408.175 358.457C411.162 355.47 417.498 348.229 413.334 344.066C411.434 342.165 408.809 343.161 407.089 344.88C405.731 346.238 402.745 350.311 399.848 353.207C397.767 355.289 392.155 359.453 391.159 360.448C390.345 361.263 390.888 362.349 391.521 362.982ZM425.915 318.09C434.061 326.235 437.229 344.971 415.054 367.146C398.31 383.89 385.638 383.89 379.846 378.098C374.596 372.848 379.484 367.779 378.126 366.422C376.949 365.245 369.528 367.598 365.545 363.616C359.119 357.19 364.55 347.958 363.282 346.691C362.196 345.605 351.878 347.596 345.18 340.898C334.229 329.946 342.827 311.211 351.969 302.069C356.585 297.453 364.55 292.928 367.717 289.76C374.596 282.881 373.238 274.645 374.596 273.287C376.678 271.206 380.298 273.016 382.018 274.735C387.086 279.804 385.638 288.493 386.634 289.489C387.539 290.394 388.806 291.118 389.711 292.023C401.93 304.242 391.883 322.615 381.927 332.571C380.389 334.11 378.579 335.377 376.949 337.006C375.411 338.545 375.501 340.445 376.949 341.894C379.755 344.699 384.281 341.26 386.362 339.178C389.168 336.373 398.129 324.335 401.749 320.714C411.162 311.301 420.485 312.659 425.915 318.09Z" fill="white"/>
<path d="M324.001 337.459L349.253 362.711C359.934 373.391 361.382 364.159 366.179 368.956C372.333 375.111 360.839 386.605 356.766 390.678C341.198 406.246 337.035 403.35 334.862 401.177C331.604 397.919 335.134 394.027 333.414 390.135C331.423 385.791 318.48 372.486 314.136 370.133C310.153 367.779 306.533 373.391 302.46 369.318C296.034 362.892 316.308 337.187 317.213 336.282C319.928 333.567 322.101 335.558 324.001 337.459ZM307.8 322.163C314.86 329.222 304.361 343.342 299.202 348.501C295.4 352.302 289.608 354.656 285.173 350.221C279.199 344.247 288.702 329.856 293.318 325.24C296.939 321.619 303.275 317.637 307.8 322.163Z" fill="white"/>
<path d="M298.225 379.708L315.784 397.266C317.413 398.896 320.309 401.973 322.21 402.969C326.464 405.231 328.998 399.62 332.8 403.421C338.864 409.485 327.369 420.075 323.477 423.967C319.404 428.04 307.185 441.164 300.759 434.737C297.591 431.57 302.66 428.854 300.397 424.419C297.863 419.532 286.549 408.218 282.114 403.783C278.584 400.253 271.977 393.284 267.09 390.026C259.034 384.686 256.047 392.379 250.888 387.22C243.014 379.346 264.646 353.912 265.913 352.645C268.99 349.568 271.706 350.835 274.421 353.55C276.503 355.632 285.282 366.765 298.225 379.708Z" fill="white"/>
<path d="M275.992 427.826L256.352 447.467C255.356 448.462 253.636 449.639 255.175 451.178C259.7 455.703 269.385 453.621 273.639 449.367C280.427 442.579 279.703 435.157 281.604 433.257C283.505 431.356 287.939 432.533 289.659 434.252C296.628 441.222 288.935 459.052 280.789 467.198C264.497 483.49 244.314 480.141 232.638 468.465C218.7 454.526 220.419 432.533 233.996 418.956C249.382 403.57 268.027 408.638 274.816 415.426C280.789 421.4 278.889 424.93 275.992 427.826ZM250.197 436.244C252.641 433.8 256.08 431.447 252.822 428.188C249.563 424.93 245.038 424.387 241.689 427.736C238.702 430.722 239.336 436.244 242.232 439.14C245.49 442.398 247.844 438.597 250.197 436.244Z" fill="white"/>
<path d="M168.487 542.572L137.804 510.441C128.663 500.938 126.4 512.251 120.517 506.368C116.354 502.205 120.97 496.322 124.137 493.154L153.644 463.648C178.805 438.486 202.609 445.817 218.901 462.109C235.736 478.944 241.71 504.649 218.811 527.547C214.919 531.439 211.57 534.607 208.583 537.232C205.687 539.947 203.152 542.301 200.618 544.835C198.084 547.369 195.55 550.084 193.106 552.709C190.753 555.424 188.309 558.049 185.684 560.674C182.607 563.751 177.176 566.105 173.556 562.484C167.039 555.967 181.43 556.058 168.487 542.572ZM158.893 488.085L192.653 521.845C197.269 526.461 199.894 527.638 204.782 522.75C216.186 511.346 206.501 497.679 197.45 488.628C176.271 467.449 164.957 472.065 157.988 479.034C154.187 482.836 155.454 484.646 158.893 488.085Z" fill="white"/>
<path d="M436.695 46.2572L446.108 66.3504C453.711 82.8231 459.684 100.382 444.931 115.135C438.415 121.652 427.372 125.996 419.86 118.484C415.335 113.958 414.973 106.718 419.589 102.102C428.006 93.6843 435.247 105.632 438.958 101.921C441.401 99.4769 440.134 96.0376 438.053 93.9558C435.518 91.4216 430.269 89.7924 426.92 88.6158L387.729 74.7678C382.389 72.8671 378.316 79.1123 374.153 74.9488C371.438 72.2335 369.084 66.6219 388.182 47.5244C391.621 44.085 400.129 36.3012 405.288 41.4602C407.732 43.904 406.374 46.7098 408.546 48.882C411.986 52.3214 422.304 54.6747 423.843 53.136C426.558 50.4207 422.213 42.2748 420.041 40.1026C415.968 36.0296 413.343 39.1975 410.266 36.1202C405.469 31.3232 413.434 22.2722 416.692 19.0138C419.679 16.027 426.829 9.78185 430.993 13.9453C436.333 19.2854 428.549 22.3627 430.721 30.8706C431.898 36.0296 434.432 41.4602 436.695 46.2572Z" fill="white"/>
<path d="M379.684 91.8642L394.618 106.074C402.311 113.768 404.845 107.432 408.375 110.962C413.625 116.211 401.949 127.706 398.6 131.055C395.794 133.861 384.843 144.812 380.227 140.196C377.602 137.572 380.227 135.128 376.335 129.788C373.982 126.348 370.904 123.09 367.917 120.103C363.392 115.578 354.794 107.16 348.367 113.587C342.846 119.108 347.734 123.633 351.807 127.706L362.306 138.205C369.818 145.717 371.9 140.558 375.158 143.817C380.408 149.066 370.18 159.475 366.741 162.914C353.798 175.857 348.096 176.129 345.29 173.323C341.67 169.703 346.829 167.802 342.484 160.38C339.316 155.04 327.369 143.093 322.391 138.115C318.318 134.042 313.883 130.15 309.72 126.167C303.113 119.922 299.945 127.616 295.691 123.362C288.45 116.121 310.082 90.6876 310.172 90.5971C312.888 87.8818 313.883 88.5154 316.508 91.1401L333.162 108.88C334.791 110.69 337.597 113.677 339.95 111.324C342.665 108.609 335.787 99.3765 345.924 89.2394C362.577 72.5857 377.059 89.4204 379.684 91.8642Z" fill="white"/>
<path d="M277.794 204.615C264.761 191.582 265.485 169.678 280.69 154.473C294.267 140.896 308.929 141.258 315.265 147.594C320.333 152.663 320.424 160.356 315.355 165.425C305.58 175.2 298.883 159.451 291.732 166.601C287.75 170.584 289.651 176.829 293.271 180.449C299.969 187.147 311.735 188.957 318.885 181.807C324.587 176.105 324.135 171.851 326.036 169.95C328.479 167.506 332.824 168.592 334.996 170.765C340.336 176.105 339.069 191.129 326.398 203.801C312.731 217.468 291.642 218.463 277.794 204.615Z" fill="white"/>
<path d="M239.954 243.542L246.923 250.511C255.702 259.29 257.241 254.674 260.68 258.114C266.292 263.725 254.073 275.582 250.362 279.293C246.742 282.913 237.51 292.145 232.079 286.715C227.735 282.37 235.79 282.099 227.192 272.957L213.977 259.019C207.461 252.14 204.112 259.833 199.315 255.036C194.518 250.239 210.81 224.897 212.62 223.086C214.611 221.095 217.598 221.548 219.408 223.358C219.951 223.901 220.404 224.534 220.947 225.078C222.033 226.164 223.753 226.978 225.11 225.621C226.558 224.172 225.472 221.457 225.382 217.746C225.382 214.126 226.196 209.51 231.355 204.351C250.091 185.615 265.296 207.157 279.959 220.009C287.562 226.707 289.644 221.367 293.536 225.259C295.165 226.888 299.328 230.327 282.312 247.343C279.054 250.601 270.546 259.471 265.477 254.403C262.219 251.144 266.745 249.696 261.314 243.36C255.34 236.482 243.393 219.466 234.885 227.974C229.093 233.766 235.881 239.469 239.954 243.542Z" fill="white"/>
<path d="M155.335 287.25L178.325 310.239C181.945 313.86 187.828 319.2 192.716 314.312C199.232 307.796 189.819 300.193 185.475 295.848C182.488 292.862 178.687 288.879 175.338 286.435C170.088 282.634 167.192 288.608 163.39 284.806C158.05 279.466 175.338 260.369 178.777 256.929C182.035 253.671 185.294 254.214 188.462 257.382C191.358 260.278 193.983 263.265 196.879 266.161L215.071 284.354C220.502 289.784 222.946 282.272 227.29 286.616C233.445 292.771 219.144 310.511 214.166 315.489C207.197 322.458 206.383 312.412 202.762 316.032C201.767 317.028 201.676 319.833 200.861 323.363C200.047 326.893 198.508 331.147 194.526 335.13C177.329 352.326 165.201 337.302 151.624 323.725C137.776 309.877 137.595 322.187 131.622 316.213C125.829 310.42 148.366 287.34 149.09 286.616C151.624 284.082 153.072 284.987 155.335 287.25Z" fill="white"/>
<path d="M102.929 380.747L97.4987 375.317C88.6287 366.447 87.9952 377.036 82.4741 371.515C75.3238 364.365 94.5119 341.194 95.3265 340.38C98.7658 336.94 99.7614 337.755 103.201 340.47C104.377 341.466 106.369 343.638 107.907 342.1C110.08 339.927 104.287 331.419 112.071 323.636C118.135 317.571 126.643 318.114 132.616 324.088C138.681 330.152 138.319 340.108 132.345 346.082C126.462 351.965 119.674 348.435 117.32 350.788C114.786 353.323 121.303 358.934 122.932 360.564C125.647 363.279 129.72 366.809 133.612 369.795C138.138 373.235 142.573 363.912 148.003 369.343C153.705 375.045 146.193 383.462 136.237 393.419C132.073 397.582 119.945 410.072 113.7 403.827C109.899 400.026 114.062 395.862 111.89 391.699C110.351 388.712 105.464 383.281 102.929 380.747Z" fill="white"/>
<path d="M19.6731 444.091C1.11859 425.537 4.37694 393.858 22.2073 376.028C31.0773 367.158 41.2144 365.891 43.5676 363.538C45.5588 361.546 45.4683 360.37 47.007 358.831C50.8084 355.03 61.398 355.844 71.4446 365.891C76.6037 371.05 77.8708 378.472 72.5307 383.812C63.2082 393.134 49.5413 374.761 33.4305 390.871C26.4613 397.841 30.0817 407.254 35.0597 412.232C48.4551 425.627 67.0096 429.881 79.681 417.21C91.1757 405.715 86.6502 397.75 89.456 394.944C92.0808 392.32 96.4253 394.13 98.688 396.393C102.67 400.375 106.834 412.865 102.308 417.391C99.2311 420.468 98.145 432.053 87.4648 442.734C68.4578 461.741 37.8655 462.284 19.6731 444.091Z" fill="white"/>
</g>
<defs>
<clipPath id="clip0_266_510">
<rect width="600" height="600" rx="300" fill="white"/>
</clipPath>
</defs>
</svg>
