<svg width="1148" height="128" viewBox="0 0 1148 128" fill="none" xmlns="http://www.w3.org/2000/svg">
<path fill-rule="evenodd" clip-rule="evenodd" d="M565.037 26.1752C560.994 24.9268 556.67 24.7871 554.458 24.7871C552.026 24.7871 547.111 24.9668 542.517 26.2951C540.436 26.8942 537.813 27.9029 535.471 29.7005C533.189 27.8829 530.647 26.8642 528.595 26.2551C523.981 24.8868 519.007 24.7871 516.625 24.7871C503.723 24.7871 495.116 26.0655 489.491 28.7518C487.079 29.9002 484.927 31.4482 483.285 33.4755C481.954 31.9575 480.363 30.5195 478.491 29.2612C473.777 26.0854 467.892 24.4275 460.916 24.4275C455.981 24.4275 451.998 25.4861 448.775 27.0641L449.145 15.4894V15.2098C449.145 14.361 449.145 13.0927 448.975 11.8444C448.805 10.586 448.375 8.43875 446.873 6.36167C443.47 1.66772 438.045 1.66772 436.304 1.66772H435.613C435.573 1.66772 435.523 1.66772 435.483 1.67771C435.432 1.67771 435.374 1.6843 435.308 1.69161C435.273 1.69551 435.237 1.69941 435.198 1.70307L435.143 1.7077C434.873 1.7277 434.492 1.76768 434.022 1.81767L434.018 1.8184C433.077 1.91787 431.758 2.05758 430.189 2.26702C427.076 2.67639 422.842 3.33567 418.538 4.34434C414.365 5.32301 409.54 6.75105 405.557 8.90809C402.184 10.7357 395.958 14.9801 395.958 22.7498C395.958 26.1152 397.069 29.1212 399.191 31.4682C392.746 27.0641 384.078 24.4275 374.37 24.4275C358.305 24.4275 344.153 31.9675 336.406 43.7419C334.905 39.1479 332.373 34.5242 327.999 30.9289C322.854 26.7045 316.248 24.7971 308.532 24.7971C301.816 24.7971 296.961 26.6345 293.348 29.0215C291.126 26.5448 287.893 24.7971 283.67 24.7971C282.469 24.7971 281.028 25.0458 280.198 25.1892L280.192 25.1899L280.097 25.2065C278.955 25.4162 277.534 25.6958 275.973 26.0555C272.85 26.7645 268.917 27.7731 265.013 29.0115C261.21 30.2198 257.016 31.7778 253.613 33.6652C253.547 33.7006 253.482 33.7364 253.416 33.773L253.308 33.8337C253.15 33.9237 252.991 34.0173 252.833 34.1146C252.282 32.6066 251.461 31.1086 250.28 29.7205C247.097 26.0155 242.704 24.7971 238.76 24.7971C236.098 24.7971 228.371 25.1165 221.104 26.4248C217.542 27.0641 213.458 28.0428 210.035 29.6605L209.968 29.6934C209.929 29.7125 209.889 29.7315 209.845 29.7505C206.812 25.4062 202.088 24.7971 199.365 24.7971C198.695 24.7971 190.438 24.8868 182.17 26.0155C178.127 26.5648 173.463 27.4435 169.599 28.9515C168.408 29.4109 167.057 30.0302 165.736 30.8489C161.682 26.9342 156.228 24.7971 150.242 24.7971C145.158 24.7971 141.224 26.2751 138.202 28.2225C134.659 24.8071 129.964 24.7971 128.023 24.7971C127.022 24.7971 124.46 25.0568 121.737 25.4462C118.744 25.8655 114.781 26.5548 110.777 27.5835C108.626 28.1325 106.283 28.8318 103.981 29.7305C103.331 23.8384 101.569 18.7151 98.987 14.6505C95.9245 9.82704 90.6298 5.03336 83.7236 5.03336C81.5017 5.03336 79.7802 5.5127 79.0295 5.72239L78.8995 5.76237C78.8533 5.74189 78.8045 5.72141 78.7517 5.70093C78.7013 5.68143 78.6476 5.66192 78.5892 5.64241C78.5325 5.61974 78.4685 5.59365 78.3981 5.56415C78.348 5.54342 78.2947 5.52099 78.2388 5.4971L78.1142 5.44395C77.9284 5.36446 77.7168 5.27254 77.4881 5.17307C77.0998 5.00654 76.6563 4.81636 76.1862 4.61692C75.3598 4.26607 74.4508 3.88645 73.6148 3.55535C69.291 1.86765 63.2857 1.36897e-05 55.8592 1.36897e-05C28.2248 -0.0199793 0 21.8608 0 52.3503C0 82.8398 25.022 105.32 54.8884 105.32C63.5159 105.32 70.3419 103.183 75.3263 101.206C76.6576 100.676 78.4291 99.9172 79.6902 99.3679C80.3107 99.0982 80.8111 98.8886 81.0814 98.7686C81.3133 98.6711 81.5105 98.5935 81.6749 98.5316C81.9151 98.4414 82.0854 98.3848 82.1925 98.3492C85.8255 98.1795 88.7881 96.6415 90.9401 95.0336C92.1311 97.1209 93.7725 98.7886 95.544 100.027C98.6469 102.214 102.27 103.273 105.153 103.862C110.533 104.961 116.408 104.961 119.287 104.961H119.956C126.341 104.961 133.448 104.861 139.032 103.433C141.885 102.704 145.268 101.425 148.04 98.8386C151.133 95.9525 152.755 92.0975 152.755 87.8132C152.755 83.8385 151.363 80.1535 148.381 77.4471C146.279 75.5297 143.857 74.5908 142.445 74.1214C142.365 73.31 142.291 72.4986 142.228 71.704C142.181 71.1101 142.139 70.5254 142.105 69.9571C144.027 70.6161 146.249 71.0457 148.791 71.0457C156.097 71.0457 162.943 67.6501 167.397 62.1874V63.6154C167.367 66.8711 167.337 70.3664 167.477 73.6021C167.668 78.1261 168.188 83.0995 169.809 87.7235C171.501 92.5269 174.464 97.1409 179.508 100.427C184.442 103.632 190.478 104.971 197.314 104.971C203.749 104.971 208.704 103.053 212.347 101.036C212.577 101.265 212.837 101.505 213.107 101.725C216.27 104.381 220.164 104.961 223.377 104.961C227.31 104.961 235.047 104.321 242.043 102.514C244.655 101.835 247.558 100.906 250.24 99.5576C250.299 99.6068 250.356 99.6561 250.413 99.7053C250.472 99.7561 250.53 99.8065 250.591 99.8572C253.303 102.104 256.476 103.203 258.918 103.802C263.652 104.961 268.827 104.961 271.179 104.961H272.029C274.657 104.961 280.226 104.962 285.351 103.992C288.064 103.483 291.517 102.554 294.519 100.636C297.102 102.584 300.024 103.512 302.226 104.012C306.407 104.962 310.973 104.961 313.178 104.961H313.776C325.196 104.961 332.823 103.782 337.737 101.006C340.31 99.5476 342.381 97.5203 343.632 94.9139C351.139 101.485 361.128 105.32 371.917 105.32C381.926 105.32 390.584 102.614 396.99 98.3992C397.56 98.0196 398.13 97.6202 398.691 97.2009C400.482 99.4079 402.804 100.916 405.207 101.955C410.091 104.072 416.897 104.961 425.815 104.961C428.047 104.961 433.541 104.961 438.636 103.812C440.988 103.283 443.991 102.354 446.673 100.546C446.953 100.736 447.224 100.916 447.494 101.076C450.286 102.763 453.469 103.582 455.911 104.042C460.835 104.961 466.08 104.961 467.982 104.961H468.402C470.704 104.961 476.229 104.961 481.364 103.992C481.415 103.98 481.466 103.969 481.519 103.959C481.559 103.952 481.601 103.946 481.644 103.942C482.354 111.382 486.648 116.835 491.833 120.19C497.228 123.686 503.743 125.094 509.408 125.094C522.06 125.094 531.288 119.871 537.933 112.201C544.199 104.981 548.042 95.7328 551.015 87.6935L551.035 87.6435L558.121 68.1094V68.0894C559.873 63.236 561.494 58.9217 563.526 55.696C563.546 55.6616 563.565 55.6299 563.585 55.5982L563.62 55.5404L563.646 55.4963C564.026 54.837 564.056 54.7873 566.699 53.6687L566.789 53.6287L566.807 53.6206C567.968 53.1271 570.624 51.9983 572.764 49.644C575.366 46.7879 576.297 43.3026 576.297 39.8869C576.297 30.7892 568.53 27.2638 565.017 26.1752H565.037ZM403.405 34.6639V34.9236C403.195 34.7139 402.975 34.5042 402.754 34.2945C402.889 34.3728 403.018 34.4449 403.138 34.5125C403.232 34.5654 403.322 34.6156 403.405 34.6639ZM403.525 68.1794C403.525 68.2347 403.521 68.2935 403.516 68.3515C403.513 68.3881 403.509 68.4244 403.505 68.459L403.477 68.4313L403.438 68.3935C403.401 68.3593 403.365 68.3257 403.327 68.292L403.258 68.2299L403.241 68.2152C403.203 68.1804 403.164 68.1453 403.125 68.1094C403.165 68.0794 403.205 68.047 403.245 68.0146L403.253 68.008C403.29 67.9778 403.328 67.9475 403.365 67.9197L403.545 67.77C403.545 67.8992 403.536 68.0197 403.527 68.1479V68.1538L403.525 68.1794Z" fill="#B51E8D"/>
<path d="M1142.08 60.8193C1145.43 58.2626 1147.74 54.268 1147.74 49.3546C1147.74 44.4409 1145.46 38.9082 1142.96 34.8438C1141.61 32.6468 1139.83 30.2998 1137.61 28.4024C1135.49 26.5748 1132.09 24.4275 1127.68 24.4275C1125.07 24.4275 1122.72 25.2265 1121.78 25.5461C1121.71 25.5661 1121.65 25.5861 1121.6 25.6061C1121.37 25.6858 1121.15 25.7658 1120.93 25.8558C1120.79 25.8258 1120.64 25.7958 1120.47 25.7658H1120.43L1120.12 25.7063L1120.09 25.7005C1119.77 25.6383 1119.41 25.569 1119.04 25.4993C1118.68 25.4337 1118.32 25.3677 1117.94 25.3065C1115.04 24.7172 1111.97 24.4375 1109.07 24.4375C1101.4 24.4375 1093.95 26.6945 1088.16 31.2985C1087.78 30.3798 1087.23 29.4109 1086.45 28.4922C1084.12 25.7358 1081.14 24.9668 1079.47 24.6972C1077.92 24.4475 1076.23 24.4375 1075.05 24.4375H1070.95C1070.95 24.1581 1070.96 23.8784 1070.96 23.5988V23.3289C1070.96 23.0536 1070.96 22.7625 1070.96 22.4611C1070.95 22.19 1070.95 21.9103 1070.94 21.6265C1070.93 21.2084 1070.91 20.7812 1070.87 20.3582C1070.85 19.9978 1070.81 19.6406 1070.76 19.2944C1070.59 17.9561 1070.01 14.7104 1067.12 12.2038C1064.39 9.85288 1061.27 9.65978 1060.27 9.59882L1060.25 9.59736C1059.8 9.56932 1059.25 9.56006 1058.71 9.55933C1058.29 9.55859 1057.87 9.56298 1057.52 9.56737H1056.91C1056.37 9.56737 1056.02 9.56737 1055.64 9.54738C1055.43 9.54738 1055.2 9.54738 1054.93 9.53738L1054.77 9.53689C1054.16 9.53543 1053.17 9.53299 1052.08 9.70708C1049.4 10.1245 1047.37 11.3524 1046.07 12.1416L1046.05 12.154L1045.98 12.2038L1045.83 12.2937L1018.45 29.6705C1018.43 29.6783 1018.42 29.6866 1018.4 29.6956L1018.36 29.7198L1018.33 29.7456L1018.28 29.7805C1017.25 30.4695 1016.26 31.3485 1015.43 32.4369C1014.35 31.3485 1013.12 30.3198 1011.73 29.3811C1007.02 26.2052 1001.13 24.5475 994.155 24.5475C989.22 24.5475 985.237 25.6061 982.014 27.1838L982.385 15.6094V15.3297C982.385 14.4808 982.384 13.2124 982.214 11.9641C982.044 10.7058 981.614 8.5587 980.113 6.48139C976.709 1.78768 971.285 1.78768 969.543 1.78768H968.823C968.79 1.78816 968.753 1.79011 968.722 1.79767C968.671 1.79767 968.613 1.80426 968.547 1.81157C968.497 1.81718 968.442 1.82327 968.382 1.82766L968.257 1.83766L968.113 1.85058L967.946 1.86643C967.815 1.87935 967.671 1.89422 967.514 1.9108L967.261 1.93762L967.255 1.93835L967.225 1.94128C966.808 1.98565 966.319 2.03759 965.767 2.09976C965.077 2.17778 964.29 2.2719 963.428 2.38698C960.305 2.79634 956.081 3.45538 951.778 4.46405C947.604 5.44273 942.78 6.87101 938.796 9.02805C935.623 10.7457 929.928 14.6007 929.268 21.5214C928.187 21.8511 927.416 22.2705 927.056 22.4701C926.506 22.7708 925.999 23.1011 925.59 23.3832C925.374 23.5324 925.186 23.668 925.034 23.7785C924.724 23.9981 924.453 24.1978 924.203 24.3878L923.989 24.5448C923.743 24.7257 923.515 24.8932 923.283 25.058C923.004 25.2553 922.72 25.4486 922.392 25.6561C920.78 26.6745 919.029 27.4335 916.727 27.4335C915.626 27.4335 913.584 27.0941 909.891 26.4648L909.64 26.4248C906.388 25.8758 902.044 25.1568 898.1 25.1568C890.654 25.1568 881.496 27.1541 873.909 31.5282C870.756 33.3458 867.643 35.7325 865.071 38.7286C865.071 37.5202 865.041 34.4442 863.68 31.5981C863.099 30.3898 862.279 29.1912 861.168 28.1228C863.129 25.5461 864.471 22.2904 864.471 18.1958C864.471 10.8457 859.877 6.30169 855.423 4.11466C851.389 2.12731 846.925 1.65797 843.812 1.65797C839.679 1.65797 833.093 2.65664 827.318 4.85367C824.916 5.77237 822.223 7.0507 819.821 8.84836C819.766 8.74083 819.71 8.63282 819.652 8.52481C819.624 8.47239 819.595 8.41997 819.566 8.36755C819.537 8.31391 819.507 8.26027 819.476 8.20663C819.318 7.92844 819.147 7.65122 818.96 7.38034C816.108 3.16597 811.624 1.65797 807.441 1.65797C805.799 1.65797 796.861 2.39697 788.244 4.47405C783.94 5.5127 778.995 7.0507 774.932 9.38768C771.259 11.5047 765.524 15.9488 765.524 23.5888C765.524 27.0441 766.494 30.3198 768.827 33.0362C769.212 33.4836 769.59 33.9127 769.953 34.3167L769.503 34.5413C769.288 34.3518 769.063 34.1526 768.827 33.9437C762.522 28.3754 753.683 24.4275 742.263 24.4275C730.393 24.4275 719.023 29.1912 710.986 37.3005C709.254 29.9702 706.041 22.8997 700.747 16.8777C691.749 6.65133 677.936 0.818993 659.3 0.818993H620.146C617.704 0.818993 613.54 1.02868 609.656 2.56667C607.645 3.36566 605.203 4.71372 603.231 7.06069C601.119 9.56737 599.968 12.7131 599.968 16.1587C599.968 20.1134 601.249 23.9182 604.482 26.7145C605.803 27.8531 607.134 28.5421 607.975 28.9315C608.2 29.0395 608.417 29.1336 608.617 29.2197L608.736 29.2712L608.741 29.3987L608.744 29.5125L608.746 29.6091C608.749 29.7595 608.747 29.9236 608.736 30.1001V30.1201L607.775 71.6747V71.6947C607.735 73.5024 607.585 74.6708 607.445 75.3698L607.384 75.3898C606.654 75.6095 605.072 76.089 603.471 77.1474C601.649 78.3458 600.078 80.0737 599.077 82.3705C598.166 84.4678 597.926 86.5948 597.926 88.4225C597.926 94.6442 601.509 98.9485 605.303 101.286C608.826 103.453 612.859 104.242 616.182 104.242C619.815 104.242 623.348 104.122 626.872 103.872C630.205 103.752 633.477 103.642 636.6 103.642C639.433 103.642 642.165 103.732 645.398 103.842L646.499 103.882C650.432 104.132 654.916 104.252 660.141 104.252C677.576 104.252 691.038 98.1396 700.036 87.9232C701.347 86.4351 702.548 84.8672 703.649 83.2494C705.331 86.6748 707.523 89.8905 710.245 92.7768C717.551 100.527 728.181 105.33 741.302 105.33C748.238 105.33 756.566 103.263 763.312 99.8472C765.394 98.7888 767.495 97.5205 769.437 96.0125C770.608 97.7802 772.099 99.2082 773.701 100.307C776.884 102.494 780.587 103.513 783.519 104.062C788.784 105.051 794.589 105.011 797.422 104.981H799.173C801.795 105.011 807.12 105.051 811.904 104.102C814.207 103.642 817.089 102.843 819.761 101.236C824.686 103.892 832.022 104.981 842.481 104.981H842.682C845.364 104.981 851.349 104.981 856.844 103.742C856.894 103.732 856.947 103.72 856.999 103.707C857.052 103.695 857.104 103.682 857.154 103.672C857.414 110.843 861.558 117.214 868.344 121.469C875.16 125.733 884.688 128 896.779 128C912.923 128 925.024 124.015 933.301 117.444C938.286 113.489 941.699 108.716 943.63 103.732C947.824 104.681 952.969 105.11 959.104 105.11C961.336 105.11 966.831 105.11 971.925 103.962C974.277 103.433 977.29 102.504 979.962 100.696C980.106 100.794 980.248 100.889 980.388 100.98C980.52 101.065 980.652 101.148 980.783 101.226C983.576 102.913 986.758 103.732 989.2 104.192C994.125 105.11 999.369 105.11 1001.27 105.11H1001.69C1003.99 105.11 1009.52 105.11 1014.64 104.142C1017.28 103.642 1020.65 102.734 1023.59 100.856C1026 99.3182 1028.55 96.7715 1029.65 93.1462C1031.65 96.0125 1034.11 98.3392 1036.87 100.157C1043.51 104.541 1050.87 105.35 1054.89 105.35C1062.49 105.35 1070.45 103.213 1076.71 99.7675C1078.27 98.8986 1079.99 97.8002 1081.65 96.4619C1082.26 97.3506 1082.92 98.1995 1083.6 98.9685C1084.94 100.497 1086.76 102.144 1089.33 103.193C1091.79 104.202 1094.12 104.272 1095.63 104.272C1097.12 104.272 1098.39 104.074 1099.13 103.958L1099.14 103.956L1099.15 103.956L1099.3 103.932H1099.37L1099.52 103.902C1099.55 103.899 1099.57 103.896 1099.6 103.892L1099.65 103.884L1099.69 103.877C1099.72 103.871 1099.76 103.866 1099.79 103.862L1099.91 103.842H1100.01L1100.08 103.822H1100.15L1100.18 103.812H1100.31C1100.61 103.842 1101.03 103.892 1101.57 103.952C1101.73 103.971 1101.89 103.99 1102.06 104.01L1102.53 104.066C1102.74 104.092 1102.97 104.12 1103.2 104.152H1103.22L1105.03 104.381L1105.44 104.431C1108.66 104.941 1112.56 105.35 1115.57 105.35C1130.87 105.35 1148 95.4532 1148 77.3074C1148 70.2667 1145.49 64.9237 1142.1 60.8493L1142.08 60.8193Z" fill="#B51E8D"/>
<path d="M55.849 6.19165C32.1882 6.19165 9.00781 25.0066 9.00781 49.574C9.00781 73.6619 29.666 93.5555 54.8882 93.5555C64.1104 93.5555 70.8915 90.6124 75.6286 88.5564C78.1714 87.4528 80.1253 86.6047 81.5517 86.6047C87.5569 86.6047 93.0818 75.5794 93.0818 70.3064C93.0818 67.3104 91.4003 63.2358 87.9173 63.2358C86.686 63.2358 85.6124 64.14 84.1752 65.3505C81.2663 67.8004 76.8679 71.5048 66.6585 71.5048C49.8437 71.5048 40.3554 56.4049 40.3554 38.6685C40.3554 32.0772 44.1988 23.4487 53.4469 23.4487C65.5892 23.4487 69.8278 30.2911 73.4904 36.2036C76.2764 40.7011 78.7291 44.6605 84.0739 44.6605C91.1601 44.6605 95.2437 38.9081 95.2437 32.0772C95.2437 18.7749 88.758 11.225 83.7136 11.225C82.7584 11.225 82.0923 11.4086 81.3834 11.604C80.577 11.8263 79.715 12.0638 78.3088 12.0638C77.2472 12.0638 75.6719 11.3851 73.5925 10.4892C69.5554 8.74983 63.6179 6.19165 55.849 6.19165Z" fill="white"/>
<path fill-rule="evenodd" clip-rule="evenodd" d="M616.776 69.108L617.737 27.5233C617.871 20.6317 615.123 19.4556 612.668 18.4054C610.727 17.5747 608.969 16.8227 608.969 13.3821C608.969 7.86944 615.936 7.03056 620.139 7.03056H659.294C692.683 7.03056 703.613 27.6432 703.613 49.2145C703.613 71.5048 690.521 92.477 660.135 92.477C654.97 92.477 650.646 92.3571 646.923 92.1174C646.536 92.105 646.154 92.0925 645.777 92.0802L645.684 92.0772C642.469 91.9721 639.579 91.8777 636.594 91.8777C633.231 91.8777 629.748 91.9976 626.385 92.1174C623.022 92.3571 619.659 92.477 616.176 92.477C612.092 92.477 606.928 90.4397 606.928 85.646C606.928 82.0804 608.548 81.6254 610.475 81.0843C613.211 80.3161 616.565 79.3743 616.776 69.108ZM646.563 26.6844V71.385C646.563 77.4969 647.523 80.0135 654.009 80.0135C669.142 80.0135 671.785 64.5541 671.785 52.57C671.785 24.5273 661.215 20.0932 651.967 20.0932C646.923 20.0932 646.563 22.1305 646.563 26.6844Z" fill="white"/>
<path d="M810.917 47.1772V70.4263C810.917 70.7124 810.915 71.0302 810.913 71.3707C810.898 73.5968 810.877 76.7926 811.397 78.4556C812.009 80.4543 813.498 81.0898 814.919 81.6967C816.566 82.3997 818.123 83.0644 818.123 85.7659C818.123 93.3174 805.162 93.2368 799.324 93.2004C799.075 93.1989 798.839 93.1974 798.618 93.1966L798.409 93.1961L798.306 93.196C798.003 93.196 797.665 93.1979 797.296 93.1999L797.294 93.1999C791.067 93.2346 776.086 93.3179 776.086 85.2865C776.086 83.1321 777.449 82.4953 778.97 81.7846C780.409 81.1116 781.991 80.3725 782.692 78.2159C784.253 73.3024 784.253 58.3224 784.253 52.4502C784.253 51.7924 784.258 51.0491 784.263 50.2425C784.295 45.3176 784.342 38.0293 783.413 33.3955C782.482 28.8138 780.141 27.4309 778.095 26.2225C776.18 25.0919 774.525 24.114 774.525 20.8122C774.525 10.3861 805.752 7.86944 807.434 7.86944C811.517 7.86944 812.478 10.5059 812.478 14.1012C812.478 14.8902 812.35 16.5334 812.168 18.8793C811.712 24.7286 810.917 34.9461 810.917 47.1772Z" fill="white"/>
<path d="M856.051 69.7072V36.2717C856.051 33.755 855.931 30.9987 852.328 30.9987C851.127 30.9987 820.62 34.5939 820.62 43.1026C820.62 46.0623 822.465 47.0006 824.309 47.9381C825.824 48.7089 827.339 49.4792 827.827 51.3716C829.148 55.8057 828.907 73.1826 827.346 77.377C826.712 79.0101 825.406 79.9716 824.14 80.9029C822.527 82.0902 820.98 83.2283 820.98 85.646C820.98 88.5222 821.821 93.196 842.479 93.196C847.884 93.196 863.138 93.196 863.138 85.0468C863.138 82.4982 861.997 81.8019 860.63 80.9682C858.592 79.7242 856.051 78.1741 856.051 69.7072Z" fill="white"/>
<path d="M832.27 27.1638C839.116 27.1638 855.451 24.767 855.451 15.4194C855.451 9.42737 848.605 7.86944 843.801 7.86944C837.675 7.86944 821.821 11.1051 821.821 19.0146C821.821 24.8868 827.226 27.1638 832.27 27.1638Z" fill="white"/>
<path d="M1015.96 74.0215L1015.48 54.7271C1015.47 54.5015 1015.47 54.1972 1015.47 53.8259C1015.47 48.6766 1015.44 30.6392 994.824 30.6392C985.96 30.6392 982.259 35.2705 979.734 38.4295C978.428 40.0645 977.437 41.305 976.208 41.305C973.085 41.305 973.205 37.4701 973.325 35.1931L974.046 12.4234C974.046 8.94801 973.806 7.86944 970.202 7.86944C970.082 7.86944 938.855 10.3861 938.855 19.9734C938.855 22.5108 940.317 23.2971 941.947 24.173C943.934 25.2414 946.169 26.4431 946.301 31.1185C946.348 33.2447 946.434 35.3894 946.519 37.5381L946.521 37.6058L946.522 37.6118V37.6294C946.651 40.9005 946.782 44.1803 946.782 47.4169C946.782 54.0081 946.782 69.8271 945.341 75.4596C944.249 79.6245 942.402 80.9459 940.919 82.0065C939.629 82.9296 938.615 83.6551 938.615 85.8857C938.615 89.6008 942.578 93.196 959.753 93.196C964.317 93.196 978.009 93.0762 978.009 86.1254C978.009 84.4123 977.252 83.7007 976.338 82.8425C974.951 81.5395 973.205 79.8988 973.205 73.9017L973.205 59.5055V59.5019C973.197 54.231 973.189 48.3756 980.291 48.3756C988.819 48.3756 988.939 59.6406 988.939 65.6326C988.939 69.5874 988.819 73.7818 988.098 77.6167C987.575 80.9437 986.34 82.4241 985.324 83.643C984.473 84.6634 983.774 85.5005 983.774 87.0841C983.774 93.196 998.307 93.196 1002.03 93.196L1002.25 93.1961C1006.96 93.198 1021.85 93.2042 1021.85 86.3651C1021.85 84.4777 1020.89 83.7629 1019.74 82.9106C1018.05 81.6523 1015.96 80.0944 1015.96 74.0215Z" fill="white"/>
<path d="M1061.95 48.1359V65.9922C1061.95 74.0215 1065.31 75.939 1068.56 75.939C1070.67 75.939 1072.28 75.0512 1073.67 74.2833C1074.73 73.6981 1075.67 73.1826 1076.6 73.1826C1079.01 73.1826 1080.69 76.5382 1080.69 78.6953C1080.69 86.6048 1066.99 93.5555 1054.86 93.5555C1048.74 93.5555 1033.36 90.919 1033.36 71.8644V47.1772C1033.36 45.0205 1033.36 44.1811 1032.76 43.8216C1032.37 43.583 1031.65 43.6084 1030.41 43.6524C1029.78 43.6747 1029.01 43.7018 1028.08 43.7018C1027.6 43.7018 1027.16 43.7047 1026.75 43.7073H1026.75C1024.5 43.7217 1023.3 43.7293 1022.8 43.2224C1022.12 42.5526 1022.14 41.6536 1022.18 39.9153L1022.18 39.9102C1022.19 39.4728 1022.19 38.9822 1022.19 38.4288C1022.19 38.1394 1022.18 37.8606 1022.17 37.5926V37.5908C1022.12 36.3063 1022.08 35.2669 1023.28 34.4741L1050.66 17.0972C1052.95 15.709 1053.26 15.7155 1055.34 15.7591C1055.77 15.7682 1056.28 15.7789 1056.91 15.7789C1057.29 15.7789 1057.64 15.7759 1057.97 15.7731C1061.75 15.7406 1061.95 15.7388 1061.95 20.8122C1061.95 21.6644 1061.94 22.5166 1061.93 23.3413C1061.88 26.1119 1061.85 28.5722 1062.31 29.6804C1062.67 30.6392 1063.51 30.6392 1066.63 30.6392H1075.04C1080.21 30.6392 1080.21 30.9987 1080.21 36.3915C1080.21 43.2224 1079.37 43.7018 1074.68 43.7018H1066.39C1062.19 43.7018 1061.95 43.8216 1061.95 48.1359Z" fill="white"/>
<path d="M1109.07 30.6392C1111.47 30.6392 1113.99 30.8788 1116.27 31.3582C1117.1 31.4963 1117.9 31.652 1118.61 31.7914L1118.61 31.7917C1119.75 32.0153 1120.68 32.1971 1121.2 32.1971C1122.4 32.1971 1123.36 31.8376 1124.44 31.3582C1125.52 30.9987 1126.6 30.6392 1127.68 30.6392C1133.21 30.6392 1138.73 41.6645 1138.73 46.578C1138.73 49.8137 1135.97 52.2105 1132.85 52.2105C1129.2 52.2105 1126.41 49.5278 1123.8 47.0186C1121.5 44.8139 1119.35 42.7431 1116.88 42.7431C1114.71 42.7431 1112.55 44.5407 1112.55 46.8176C1112.55 49.8181 1116.59 51.8648 1121.52 54.3569C1129.18 58.2352 1138.97 63.1922 1138.97 74.5008C1138.97 85.7659 1128.04 93.5555 1115.55 93.5555C1113.15 93.5555 1109.67 93.196 1106.67 92.7166C1105.86 92.6203 1105.08 92.524 1104.36 92.4345L1104.36 92.4343L1104.36 92.4342C1102.38 92.1901 1100.83 91.9976 1100.3 91.9976C1099.55 91.9976 1098.9 92.092 1098.18 92.197L1098.17 92.1984C1098.08 92.2113 1097.99 92.2243 1097.9 92.2373C1097.18 92.3571 1096.46 92.4769 1095.62 92.4769C1093.21 92.4769 1092.01 92.1174 1090.33 90.2C1087.33 86.8444 1084.33 80.0135 1084.33 75.4596C1084.33 72.3437 1085.41 69.8271 1088.89 69.8271C1091.37 69.8271 1093.75 72.4467 1096.27 75.224C1099.11 78.3573 1102.14 81.6913 1105.71 81.6913C1108.11 81.6913 1110.39 80.4929 1110.39 77.8564C1110.39 75.2105 1107.09 73.4373 1102.97 71.2179C1096.07 67.5065 1086.85 62.5474 1086.85 50.1732C1086.85 38.1891 1096.7 30.6392 1109.07 30.6392Z" fill="white"/>
<path fill-rule="evenodd" clip-rule="evenodd" d="M936.522 90.919C936.522 101.705 926.193 116.205 896.767 116.205C874.548 116.205 866.14 107.817 866.14 100.147C866.14 95.5392 869.043 93.9333 871 92.8505C871.995 92.2999 872.746 91.8845 872.746 91.2785C872.746 90.7299 871.942 89.9584 870.9 88.9587C868.982 87.1196 866.26 84.5082 866.26 81.0921C866.26 75.1999 870.926 72.1811 873.795 70.3246C875.069 69.5002 875.989 68.9049 875.989 68.389C875.989 67.9761 875.316 67.2275 874.356 66.16C871.973 63.5091 867.822 58.8923 867.822 52.57C867.822 38.0693 885.958 31.3582 898.088 31.3582C901.438 31.3582 905.435 32.0393 909.057 32.6565C912.057 33.1678 914.8 33.6352 916.705 33.6352C923.025 33.6352 927.157 30.5902 929.699 28.7169C930.829 27.8846 931.644 27.2836 932.198 27.2836C934.961 27.2836 936.162 30.8789 936.162 33.1558C936.162 37.806 932.933 41.5355 930.949 43.8261C930.07 44.8411 929.436 45.574 929.436 45.9788C929.436 46.578 929.526 47.2071 929.616 47.8363L929.616 47.8376C929.706 48.4664 929.796 49.0951 929.796 49.6938C929.796 65.8723 910.94 71.385 897.728 71.385C896.722 71.385 895.715 71.2977 894.695 71.2091C893.644 71.1179 892.579 71.0255 891.483 71.0255C889.441 71.0255 888.24 72.3437 888.24 74.2612C888.24 77.9762 893.524 78.6953 896.287 78.6953C898.03 78.6953 902.011 78.2487 906.245 77.7737C911.055 77.2342 916.192 76.658 918.746 76.658C931.237 76.658 936.522 83.7286 936.522 90.919ZM906.496 53.8883C906.496 48.9748 905.415 40.1066 898.689 40.1066C894.005 40.1066 891.963 44.5407 891.963 48.7351C891.963 53.2891 893.164 63.2358 899.289 63.2358C904.694 63.2358 906.496 58.562 906.496 53.8883ZM883.916 97.8698C883.916 104.221 893.284 105.899 897.968 105.899C901.932 105.899 910.94 105.3 910.94 99.7872C910.94 97.2706 908.538 96.192 906.256 96.192C905.523 96.192 904.315 96.3108 902.881 96.4518C900.785 96.6577 898.208 96.9111 895.926 96.9111C894.293 96.9111 891.36 96.5761 888.96 96.3021C887.301 96.1127 885.897 95.9523 885.357 95.9523C884.276 95.9523 883.916 97.0309 883.916 97.8698Z" fill="white"/>
<path fill-rule="evenodd" clip-rule="evenodd" d="M738.176 64.3144H764.239C768.083 64.3144 771.686 63.2358 771.686 55.3263C771.686 46.3383 762.678 30.6392 742.26 30.6392C724.244 30.6392 708.51 44.0613 708.51 62.5168C708.51 77.9762 719.68 93.5555 741.299 93.5555C752.108 93.5555 769.043 86.8444 769.043 77.6167C769.043 75.3397 766.881 71.6247 764.359 71.6247C763.486 71.6247 762.384 72.2704 760.941 73.115C758.215 74.7112 754.276 77.0175 748.385 77.0175C742.74 77.0175 734.933 71.9842 734.933 65.9922C734.933 64.2138 736.397 64.2617 737.648 64.3026C737.831 64.3086 738.008 64.3144 738.176 64.3144ZM742.772 52.8321C742.358 52.8209 741.944 52.8097 741.539 52.8097C741.063 52.8097 740.564 52.832 740.062 52.8545C737.266 52.9795 734.333 53.1106 734.333 49.4541C734.333 45.6192 737.576 41.5447 741.539 41.5447C745.983 41.5447 748.625 44.9002 748.625 49.2145C748.625 52.9904 745.681 52.9108 742.772 52.8321Z" fill="white"/>
<path d="M542.576 81.8111L549.662 62.2771C551.343 57.6033 553.265 52.3303 555.907 48.1359C557.859 44.8528 560.459 43.7659 562.683 42.8357C565.25 41.7626 567.317 40.898 567.317 37.1106C567.317 31.5979 558.43 30.9987 554.466 30.9987C550.142 30.9987 538.852 31.7177 538.852 38.0693C538.852 39.9641 539.683 40.9 540.573 41.9014C541.596 43.0534 542.696 44.2921 542.696 47.1772C542.696 50.0534 540.173 58.3224 536.57 58.3224C534.528 58.3224 529.244 49.9335 529.244 45.3796C529.244 43.9838 529.894 43.0396 530.564 42.0676C531.274 41.0367 532.006 39.9745 532.006 38.309C532.006 31.4781 521.197 30.9987 516.633 30.9987C491.29 30.9987 489.128 36.2717 489.128 39.8669C489.128 42.8868 491.183 43.8208 493.416 44.8361C495.259 45.6741 497.225 46.5675 498.256 48.7351L515.071 83.8484C515.215 84.1464 515.368 84.4598 515.527 84.7859L515.527 84.7869C516.967 87.7393 518.915 91.7325 518.915 94.7539C518.915 97.5103 517.473 100.626 514.231 100.626C512.266 100.626 511.582 98.6035 510.76 96.1724C509.523 92.5109 507.972 87.923 501.259 87.923C495.134 87.923 490.57 92.9563 490.57 98.9484C490.57 108.895 500.779 113.329 509.426 113.329C529.004 113.329 536.69 97.7499 542.576 81.8111Z" fill="white"/>
<path d="M481.575 54.7271L482.055 74.0215C482.055 80.0944 484.147 81.6523 485.836 82.9106C486.981 83.7629 487.941 84.4777 487.941 86.3651C487.941 93.2042 473.057 93.198 468.345 93.1961L468.123 93.196C464.4 93.196 449.867 93.196 449.867 87.0841C449.867 85.5005 450.565 84.6634 451.416 83.6431C452.433 82.4241 453.668 80.9437 454.191 77.6167C454.911 73.7818 455.032 69.5874 455.032 65.6326C455.032 59.6406 454.911 48.3756 446.384 48.3756C439.282 48.3756 439.29 54.231 439.297 59.5019V59.5054C439.297 59.671 439.298 59.8359 439.298 60.0001V73.9017C439.298 79.8988 441.044 81.5395 442.431 82.8425C443.344 83.7007 444.102 84.4123 444.102 86.1254C444.102 93.0762 430.41 93.196 425.846 93.196C408.671 93.196 404.707 89.6008 404.707 85.8857C404.707 83.6551 405.721 82.9296 407.012 82.0065C408.494 80.9459 410.341 79.6245 411.433 75.4596C412.874 69.8272 412.874 54.0088 412.874 47.4173C412.874 44.1733 412.744 40.8856 412.614 37.6071L412.614 37.6058L412.614 37.6004C412.528 35.4309 412.442 33.2652 412.394 31.1185C412.262 26.4431 410.027 25.2414 408.039 24.173C406.41 23.2971 404.947 22.5108 404.947 19.9734C404.947 10.3861 436.175 7.86944 436.295 7.86944C439.898 7.86944 440.138 8.94801 440.138 12.4234L439.418 35.1931C439.298 37.4701 439.178 41.305 442.3 41.305C443.529 41.305 444.521 40.0644 445.827 38.4295C448.351 35.2705 452.053 30.6392 460.917 30.6392C481.53 30.6392 481.558 48.6766 481.566 53.8259V53.8284C481.566 54.1985 481.567 54.502 481.575 54.7271Z" fill="white"/>
<path d="M374.353 30.6392C354.175 30.6392 339.162 44.6605 339.162 61.9176C339.162 80.2532 353.814 93.5555 371.95 93.5555C388.765 93.5555 399.575 84.4476 399.575 77.377C399.575 74.5008 397.413 70.9056 394.17 70.9056C393.247 70.9056 392.324 71.3231 391.153 71.8524C389.125 72.7691 386.356 74.0215 381.559 74.0215C372.07 74.0215 365.465 65.0334 365.465 56.1652C365.465 51.3716 368.347 45.9788 373.632 45.9788C378.006 45.9788 379.087 49.1368 380.253 52.5412C381.616 56.5217 383.095 60.839 390.086 60.839C396.812 60.839 401.857 55.6859 401.857 48.9748C401.857 40.5859 392.368 30.6392 374.353 30.6392Z" fill="white"/>
<path d="M288.227 62.6366V71.8644C288.227 79.014 289.772 80.9956 290.961 82.5213C291.706 83.4762 292.311 84.2525 292.311 86.0056C292.311 93.2232 277.238 93.2034 271.861 93.1964H271.853C271.698 93.1962 271.551 93.196 271.412 93.196C266.608 93.196 254.357 93.196 254.357 86.0056C254.357 83.6255 255.303 83.1124 256.438 82.4969C258.045 81.6248 260.031 80.5471 260.243 73.662L260.723 55.6859C260.854 50.8637 258.747 49.514 256.798 48.2651C255.162 47.2172 253.637 46.2401 253.637 43.3423C253.637 36.9907 281.261 30.9987 283.663 30.9987C286.306 30.9987 287.987 33.2757 287.987 35.6725C287.987 36.032 287.957 36.3915 287.927 36.751C287.897 37.1106 287.867 37.4701 287.867 37.8296C287.867 39.2677 288.467 40.9455 290.269 40.9455C291.578 40.9455 292.497 39.7781 293.709 38.2383C294.276 37.5174 294.908 36.7147 295.674 35.9122C298.076 33.5153 301.679 30.9987 308.525 30.9987C329.471 30.9987 329.786 48.267 330.084 64.5998C330.14 67.6529 330.195 70.6733 330.384 73.5421C330.725 78.9191 332.461 80.5464 333.897 81.8929C334.99 82.9173 335.909 83.7791 335.909 86.0056C335.909 86.0485 335.909 86.0926 335.91 86.1378C335.919 88.3611 335.94 93.196 313.81 93.196L313.376 93.1965C308.764 93.2042 297.956 93.2223 297.956 86.7246C297.956 84.8459 298.707 84.1716 299.606 83.3658C300.77 82.3212 302.181 81.0555 302.52 76.658C302.592 75.638 302.704 74.4647 302.825 73.1896C303.716 63.8277 305.13 48.9748 295.193 48.9748C288.097 48.9748 288.166 56.023 288.219 61.3489C288.223 61.7917 288.227 62.2226 288.227 62.6366Z" fill="white"/>
<path d="M203.083 65.9922V35.5526C203.083 32.5566 202.722 30.9987 199.359 30.9987C198.399 30.9987 168.132 31.3582 168.132 39.028C168.132 42.1635 169.434 42.7942 171.006 43.5556C173.4 44.7148 176.419 46.1768 176.419 57.2438C176.419 58.5462 176.409 59.8486 176.399 61.1441C176.271 77.7303 176.151 93.196 197.318 93.196C202.602 93.196 206.446 91.3984 209.328 89.6008C210.274 89.0108 211.117 88.4208 211.869 87.8943C213.407 86.8168 214.566 86.0056 215.454 86.0056C217.466 86.0056 217.561 87.2671 217.671 88.7333C217.824 90.7676 218.006 93.196 223.38 93.196C229.986 93.196 251.245 90.919 251.245 82.7699C251.245 80.054 249.772 79.3683 248.218 78.6445C246.48 77.8352 244.639 76.9782 244.639 73.1826V49.0946C244.639 47.1772 244.699 45.2897 244.759 43.4022L244.759 43.4008C244.819 41.5138 244.879 39.6267 244.879 37.7098C244.879 33.5153 243.078 30.9987 238.754 30.9987C234.19 30.9987 210.049 32.1971 210.049 39.2677C210.049 41.7322 211.46 42.5016 213.013 43.3484C214.631 44.231 216.404 45.1977 216.895 48.2557C217.412 51.5585 217.395 55.839 217.38 59.4897C217.378 60.0779 217.375 60.6498 217.375 61.1985C217.375 61.785 217.388 62.4287 217.401 63.1119V63.1134C217.518 69.1322 217.694 78.2159 209.929 78.2159C203.443 78.2159 203.083 70.7858 203.083 65.9922Z" fill="white"/>
<path d="M106.276 62.7565V55.566C106.276 49.0011 103.95 48.1654 101.897 47.4283C100.278 46.8467 98.8299 46.3265 98.8299 43.1026C98.8299 33.6352 126.935 30.9987 128.016 30.9987C132.559 30.9987 132.699 32.1861 133.174 36.2154L133.18 36.2717C133.195 36.4439 133.206 36.6351 133.217 36.8382C133.303 38.3305 133.425 40.4661 135.222 40.4661C136.218 40.4661 137.086 39.3349 138.221 37.8545C140.369 35.0522 143.476 30.9987 150.235 30.9987C158.282 30.9987 163.567 36.9907 163.567 44.9002C163.567 52.9295 156.721 59.2811 148.794 59.2811C144.012 59.2811 141.348 56.7178 139.283 54.7316C137.978 53.4755 136.912 52.4502 135.702 52.4502C132.707 52.4502 132.856 58.8213 132.924 61.7378C132.933 62.0954 132.94 62.401 132.94 62.6366C132.94 66.2319 133.3 71.2652 133.901 75.8191C134.229 78.2236 136.306 78.8588 138.469 79.5202C141.048 80.3091 143.749 81.1353 143.749 85.0468C143.749 92.5968 133.18 93.196 119.969 93.196C119.83 93.196 119.685 93.1961 119.534 93.1963L119.513 93.1963C113.601 93.2027 98.1093 93.2194 98.1093 85.1667C98.1093 82.3721 99.8124 81.1291 101.554 79.8584C102.948 78.8404 104.368 77.8046 104.955 75.9389C105.916 72.9429 106.276 66.112 106.276 62.7565Z" fill="white"/>
</svg>
